<mxfile host="drawio-plugin" modified="2021-03-10T11:03:56.809Z" agent="5.0 (X11; Linux x86_64) AppleWebKit/537.36 (KHTML, like Gecko) Chrome/84.0.4147.105 Safari/537.36" etag="pxcSzBjpmPJvb0hrrwOY" version="13.7.9" type="embed"><diagram id="C5RBs43oDa-KdzZeNtuy" name="Page-1"><mxGraphModel dx="892" dy="703" grid="1" gridSize="10" guides="1" tooltips="1" connect="1" arrows="1" fold="1" page="1" pageScale="1" pageWidth="827" pageHeight="1169" math="0" shadow="1"><root><mxCell id="WIyWlLk6GJQsqaUBKTNV-0"/><mxCell id="WIyWlLk6GJQsqaUBKTNV-1" parent="WIyWlLk6GJQsqaUBKTNV-0"/><mxCell id="BprngWskLxrPRDrW7Igl-20" value="" style="edgeStyle=orthogonalEdgeStyle;rounded=0;sketch=1;orthogonalLoop=1;jettySize=auto;html=1;" parent="WIyWlLk6GJQsqaUBKTNV-1" source="BprngWskLxrPRDrW7Igl-1" target="BprngWskLxrPRDrW7Igl-17" edge="1"><mxGeometry relative="1" as="geometry"/></mxCell><mxCell id="BprngWskLxrPRDrW7Igl-1" value="Insert API credentials" style="rounded=1;whiteSpace=wrap;html=1;shadow=0;glass=0;sketch=1;" parent="WIyWlLk6GJQsqaUBKTNV-1" vertex="1"><mxGeometry x="509" y="160" width="150" height="60" as="geometry"/></mxCell><mxCell id="BprngWskLxrPRDrW7Igl-5" value="No" style="edgeStyle=orthogonalEdgeStyle;rounded=0;sketch=1;orthogonalLoop=1;jettySize=auto;html=1;entryX=0.5;entryY=0;entryDx=0;entryDy=0;" parent="WIyWlLk6GJQsqaUBKTNV-1" source="BprngWskLxrPRDrW7Igl-4" target="BprngWskLxrPRDrW7Igl-1" edge="1"><mxGeometry relative="1" as="geometry"/></mxCell><mxCell id="BprngWskLxrPRDrW7Igl-18" value="Yes" style="edgeStyle=orthogonalEdgeStyle;rounded=0;sketch=1;orthogonalLoop=1;jettySize=auto;html=1;" parent="WIyWlLk6GJQsqaUBKTNV-1" source="BprngWskLxrPRDrW7Igl-4" target="BprngWskLxrPRDrW7Igl-17" edge="1"><mxGeometry relative="1" as="geometry"/></mxCell><mxCell id="12" value="" style="edgeStyle=orthogonalEdgeStyle;rounded=0;orthogonalLoop=1;jettySize=auto;html=1;" edge="1" parent="WIyWlLk6GJQsqaUBKTNV-1" source="BprngWskLxrPRDrW7Igl-4" target="BprngWskLxrPRDrW7Igl-17"><mxGeometry relative="1" as="geometry"/></mxCell><mxCell id="BprngWskLxrPRDrW7Igl-4" value="API credentials added?" style="rhombus;whiteSpace=wrap;html=1;shadow=0;glass=0;sketch=1;aspect=fixed;" parent="WIyWlLk6GJQsqaUBKTNV-1" vertex="1"><mxGeometry x="340" width="100" height="100" as="geometry"/></mxCell><mxCell id="BprngWskLxrPRDrW7Igl-22" value="" style="edgeStyle=orthogonalEdgeStyle;rounded=0;sketch=1;orthogonalLoop=1;jettySize=auto;html=1;" parent="WIyWlLk6GJQsqaUBKTNV-1" source="BprngWskLxrPRDrW7Igl-17" target="BprngWskLxrPRDrW7Igl-21" edge="1"><mxGeometry relative="1" as="geometry"/></mxCell><mxCell id="BprngWskLxrPRDrW7Igl-17" value="Create new project" style="whiteSpace=wrap;html=1;shadow=0;glass=0;sketch=1;rounded=1;" parent="WIyWlLk6GJQsqaUBKTNV-1" vertex="1"><mxGeometry x="330" y="160" width="120" height="60" as="geometry"/></mxCell><mxCell id="BprngWskLxrPRDrW7Igl-24" value="" style="edgeStyle=orthogonalEdgeStyle;rounded=0;sketch=1;orthogonalLoop=1;jettySize=auto;html=1;" parent="WIyWlLk6GJQsqaUBKTNV-1" source="BprngWskLxrPRDrW7Igl-21" target="BprngWskLxrPRDrW7Igl-23" edge="1"><mxGeometry relative="1" as="geometry"/></mxCell><mxCell id="BprngWskLxrPRDrW7Igl-21" value="Add content&lt;br&gt;to project" style="whiteSpace=wrap;html=1;rounded=1;shadow=0;glass=0;sketch=1;" parent="WIyWlLk6GJQsqaUBKTNV-1" vertex="1"><mxGeometry x="330" y="260" width="120" height="60" as="geometry"/></mxCell><mxCell id="BprngWskLxrPRDrW7Igl-25" style="edgeStyle=orthogonalEdgeStyle;rounded=0;sketch=1;orthogonalLoop=1;jettySize=auto;html=1;entryX=1;entryY=0.5;entryDx=0;entryDy=0;" parent="WIyWlLk6GJQsqaUBKTNV-1" source="BprngWskLxrPRDrW7Igl-23" target="BprngWskLxrPRDrW7Igl-21" edge="1"><mxGeometry relative="1" as="geometry"><Array as="points"><mxPoint x="585" y="430"/><mxPoint x="585" y="290"/></Array></mxGeometry></mxCell><mxCell id="BprngWskLxrPRDrW7Igl-26" value="No" style="edgeLabel;html=1;align=center;verticalAlign=middle;resizable=0;points=[];" parent="BprngWskLxrPRDrW7Igl-25" vertex="1" connectable="0"><mxGeometry x="0.0069" y="-3" relative="1" as="geometry"><mxPoint as="offset"/></mxGeometry></mxCell><mxCell id="BprngWskLxrPRDrW7Igl-28" value="" style="edgeStyle=orthogonalEdgeStyle;rounded=0;sketch=1;orthogonalLoop=1;jettySize=auto;html=1;" parent="WIyWlLk6GJQsqaUBKTNV-1" source="BprngWskLxrPRDrW7Igl-23" target="BprngWskLxrPRDrW7Igl-27" edge="1"><mxGeometry relative="1" as="geometry"/></mxCell><mxCell id="BprngWskLxrPRDrW7Igl-29" value="Yes" style="edgeLabel;html=1;align=center;verticalAlign=middle;resizable=0;points=[];" parent="BprngWskLxrPRDrW7Igl-28" vertex="1" connectable="0"><mxGeometry x="-0.2444" y="-1" relative="1" as="geometry"><mxPoint as="offset"/></mxGeometry></mxCell><mxCell id="BprngWskLxrPRDrW7Igl-23" value="All content added?" style="rhombus;whiteSpace=wrap;html=1;rounded=1;shadow=0;glass=0;sketch=1;aspect=fixed;" parent="WIyWlLk6GJQsqaUBKTNV-1" vertex="1"><mxGeometry x="340" y="385" width="100" height="100" as="geometry"/></mxCell><mxCell id="BprngWskLxrPRDrW7Igl-33" value="" style="edgeStyle=orthogonalEdgeStyle;rounded=0;sketch=1;orthogonalLoop=1;jettySize=auto;html=1;" parent="WIyWlLk6GJQsqaUBKTNV-1" source="BprngWskLxrPRDrW7Igl-27" target="BprngWskLxrPRDrW7Igl-32" edge="1"><mxGeometry relative="1" as="geometry"/></mxCell><mxCell id="BprngWskLxrPRDrW7Igl-27" value="Send project to EasyTranslate" style="whiteSpace=wrap;html=1;rounded=1;shadow=0;glass=0;sketch=1;" parent="WIyWlLk6GJQsqaUBKTNV-1" vertex="1"><mxGeometry x="330" y="540" width="120" height="60" as="geometry"/></mxCell><mxCell id="BprngWskLxrPRDrW7Igl-35" value="No" style="edgeStyle=orthogonalEdgeStyle;rounded=0;sketch=1;orthogonalLoop=1;jettySize=auto;html=1;exitX=1;exitY=0.5;exitDx=0;exitDy=0;" parent="WIyWlLk6GJQsqaUBKTNV-1" source="BprngWskLxrPRDrW7Igl-32" target="BprngWskLxrPRDrW7Igl-34" edge="1"><mxGeometry x="-0.0526" relative="1" as="geometry"><Array as="points"><mxPoint x="584" y="690"/></Array><mxPoint as="offset"/></mxGeometry></mxCell><mxCell id="BprngWskLxrPRDrW7Igl-37" value="Yes" style="edgeStyle=orthogonalEdgeStyle;rounded=0;sketch=1;orthogonalLoop=1;jettySize=auto;html=1;" parent="WIyWlLk6GJQsqaUBKTNV-1" source="BprngWskLxrPRDrW7Igl-32" target="BprngWskLxrPRDrW7Igl-36" edge="1"><mxGeometry relative="1" as="geometry"/></mxCell><mxCell id="BprngWskLxrPRDrW7Igl-32" value="Price approval necessary?" style="rhombus;whiteSpace=wrap;html=1;rounded=1;shadow=0;glass=0;sketch=1;aspect=fixed;" parent="WIyWlLk6GJQsqaUBKTNV-1" vertex="1"><mxGeometry x="340" y="640" width="100" height="100" as="geometry"/></mxCell><mxCell id="BprngWskLxrPRDrW7Igl-34" value="Wait for content to be translated" style="whiteSpace=wrap;html=1;rounded=1;shadow=0;glass=0;sketch=1;" parent="WIyWlLk6GJQsqaUBKTNV-1" vertex="1"><mxGeometry x="536" y="820" width="96" height="50" as="geometry"/></mxCell><mxCell id="BprngWskLxrPRDrW7Igl-38" value="Yes" style="edgeStyle=orthogonalEdgeStyle;rounded=0;sketch=1;orthogonalLoop=1;jettySize=auto;html=1;entryX=0.008;entryY=0.617;entryDx=0;entryDy=0;entryPerimeter=0;" parent="WIyWlLk6GJQsqaUBKTNV-1" source="BprngWskLxrPRDrW7Igl-36" target="BprngWskLxrPRDrW7Igl-34" edge="1"><mxGeometry relative="1" as="geometry"/></mxCell><mxCell id="BprngWskLxrPRDrW7Igl-41" value="No" style="edgeStyle=orthogonalEdgeStyle;rounded=0;sketch=1;orthogonalLoop=1;jettySize=auto;html=1;entryX=0;entryY=0.5;entryDx=0;entryDy=0;exitX=0;exitY=0.5;exitDx=0;exitDy=0;" parent="WIyWlLk6GJQsqaUBKTNV-1" source="BprngWskLxrPRDrW7Igl-36" target="BprngWskLxrPRDrW7Igl-17" edge="1"><mxGeometry relative="1" as="geometry"><Array as="points"><mxPoint x="250" y="850"/><mxPoint x="250" y="190"/></Array></mxGeometry></mxCell><mxCell id="BprngWskLxrPRDrW7Igl-36" value="Accept price?" style="rhombus;whiteSpace=wrap;html=1;rounded=1;shadow=0;glass=0;sketch=1;aspect=fixed;" parent="WIyWlLk6GJQsqaUBKTNV-1" vertex="1"><mxGeometry x="340" y="800" width="100" height="100" as="geometry"/></mxCell><mxCell id="0" value="Automatic import&lt;br&gt;active?" style="rhombus;whiteSpace=wrap;html=1;rounded=1;shadow=0;glass=0;sketch=1;aspect=fixed;" vertex="1" parent="WIyWlLk6GJQsqaUBKTNV-1"><mxGeometry x="529" y="910" width="110" height="110" as="geometry"/></mxCell><mxCell id="5" value="" style="edgeStyle=orthogonalEdgeStyle;rounded=0;sketch=1;orthogonalLoop=1;jettySize=auto;html=1;exitX=0.5;exitY=1;exitDx=0;exitDy=0;entryX=0.5;entryY=0;entryDx=0;entryDy=0;" edge="1" parent="WIyWlLk6GJQsqaUBKTNV-1" source="BprngWskLxrPRDrW7Igl-34" target="0"><mxGeometry relative="1" as="geometry"><mxPoint x="400" y="610" as="sourcePoint"/><mxPoint x="400" y="670" as="targetPoint"/></mxGeometry></mxCell><mxCell id="6" value="Schedule Import" style="whiteSpace=wrap;html=1;rounded=1;shadow=0;glass=0;sketch=1;" vertex="1" parent="WIyWlLk6GJQsqaUBKTNV-1"><mxGeometry x="536" y="1090" width="96" height="50" as="geometry"/></mxCell><mxCell id="7" value="Translations&lt;br&gt;are imported" style="whiteSpace=wrap;html=1;rounded=1;shadow=0;glass=0;sketch=1;" vertex="1" parent="WIyWlLk6GJQsqaUBKTNV-1"><mxGeometry x="330" y="1090" width="96" height="50" as="geometry"/></mxCell><mxCell id="8" value="No" style="edgeStyle=orthogonalEdgeStyle;rounded=0;sketch=1;orthogonalLoop=1;jettySize=auto;html=1;exitX=0.5;exitY=1;exitDx=0;exitDy=0;entryX=0.5;entryY=0;entryDx=0;entryDy=0;" edge="1" parent="WIyWlLk6GJQsqaUBKTNV-1" source="0" target="6"><mxGeometry x="0.1429" y="-10" relative="1" as="geometry"><Array as="points"><mxPoint x="584" y="1040"/><mxPoint x="584" y="1040"/></Array><mxPoint x="450" y="700" as="sourcePoint"/><mxPoint x="594" y="830" as="targetPoint"/><mxPoint x="10" y="-10" as="offset"/></mxGeometry></mxCell><mxCell id="11" value="" style="edgeStyle=orthogonalEdgeStyle;rounded=0;sketch=1;orthogonalLoop=1;jettySize=auto;html=1;exitX=0;exitY=0.5;exitDx=0;exitDy=0;entryX=1;entryY=0.5;entryDx=0;entryDy=0;" edge="1" parent="WIyWlLk6GJQsqaUBKTNV-1" source="6" target="7"><mxGeometry relative="1" as="geometry"><mxPoint x="400" y="610" as="sourcePoint"/><mxPoint x="400" y="650" as="targetPoint"/></mxGeometry></mxCell><mxCell id="15" value="Yes" style="edgeStyle=orthogonalEdgeStyle;rounded=0;sketch=1;orthogonalLoop=1;jettySize=auto;html=1;entryX=0.5;entryY=0;entryDx=0;entryDy=0;exitX=0;exitY=0.5;exitDx=0;exitDy=0;" edge="1" parent="WIyWlLk6GJQsqaUBKTNV-1" source="0" target="7"><mxGeometry x="0.0942" y="-5" relative="1" as="geometry"><mxPoint x="450" y="860" as="sourcePoint"/><mxPoint x="546.768" y="860.8499999999999" as="targetPoint"/><Array as="points"><mxPoint x="378" y="965"/></Array><mxPoint x="5" y="-5" as="offset"/></mxGeometry></mxCell></root></mxGraphModel></diagram></mxfile>